# xmcd
#
# Track frame offsets:
#	150
#	17038
#	34067
#	52835
#	67800
#	82349
#	100503
#	123600
#	140102
#	156104
#	167026
#	182924
#	203553
#	223177
#	237142
#	253125
#	272401
#	291273
#	311250
#
# Disc length: 4339 seconds
#
# Revision: 1
# Processed by: cddbd v1.5PL3 Copyright (c) Steve Scherf et al.
# Submitted via: audiograbber 1.83.01
#
DISCID=0f10f113
DTITLE=Various Artist - Любимые мелодии СССР 107.0 FM. (2003)
DYEAR=1900
DGENRE=
TTITLE0=Игорь Николаев. - Королевство кривых зеркал.
TTITLE1=Татьяна Овсиенко. - Дальнобойщик.
TTITLE2=Игорь Корнелюк. - Дожди.
TTITLE3=Виа Добры молодцы. - Кто тебе сказал.
TTITLE4=Марина Хлебникова. - Чашка кофею.
TTITLE5=Белорусские Песняры. - Волга.
TTITLE6=Юрий Лоза. - Плот.
TTITLE7=Вячеслав Малежик. - Ты мне нравишься.
TTITLE8=Виа Пламя. - Снег кружиться.
TTITLE9=Владимир Маркин. - Я готов целовать
TTITLE10=Евгений Осин. - Таня and Володя.
TTITLE11=Игорь Саруханов. - Желаю тебе.
TTITLE12=Алексаднр Барыкин. - За той рекой.
TTITLE13=Виа Добры молодцы. - Ты мне снишься.
TTITLE14=Лев Лещенко. - Родная земля.
TTITLE15=Марина Хлебникова. - Дожди.
TTITLE16=Игорь Николаев. - Выпьем за любовь.
TTITLE17=Юрий Лоза. - Я умею мечтать.
TTITLE18=Олег Газманов. - Мои ясные дни.
EXTD=
EXTT0=
EXTT1=
EXTT2=
EXTT3=
EXTT4=
EXTT5=
EXTT6=
EXTT7=
EXTT8=
EXTT9=
EXTT10=
EXTT11=
EXTT12=
EXTT13=
EXTT14=
EXTT15=
EXTT16=
EXTT17=
EXTT18=
PLAYORDER=
